<?xml version="1.0" encoding="UTF-8"?>
<!-- Generator: Adobe Illustrator 12.0.1, SVG Export Plug-In . SVG Version: 6.00 Build 51448)  -->
<!DOCTYPE svg PUBLIC "-//W3C//DTD SVG 1.1//EN" "http://www.w3.org/Graphics/SVG/1.1/DTD/svg11.dtd">
<svg version="1.1" id="Ebene_1" xmlns="http://www.w3.org/2000/svg" xmlns:xlink="http://www.w3.org/1999/xlink" width="425.196" height="119.551" viewBox="0 0 425.196 119.551" overflow="visible" enable-background="new 0 0 425.196 119.551" xml:space="preserve">
<g>
	<path fill="#002F56" d="M151.685,104.184v-1.244c-3.864-0.355-3.997-0.578-4.131-5.285l-0.444-16.08   c-0.133-4.574,0.178-4.662,4.086-5.018v-1.244h-7.55l-10.261,22.209l-10.127-22.209h-7.284v1.244c4.042,0.4,4.264,0.576,3.864,6.35   l-0.622,9.24c-0.355,4.619-0.621,6.574-0.843,8.127c-0.312,1.867-1.2,2.355-3.776,2.666v1.244h10.349v-1.244   c-2.931-0.311-3.997-0.621-4.086-2.754c-0.045-1.777-0.045-3.73,0.133-7.373l0.666-12.658h0.089l9.95,23.719h0.888l10.838-24.342   h0.177l0.133,18.123c0.045,4.707-0.133,4.93-3.731,5.285v1.244H151.685L151.685,104.184z M184.242,104.184v-1.244   c-2.887-0.266-3.465-0.666-4.886-4.486c-2.843-7.729-5.819-16.166-8.572-23.807l-1.377,0.4l-9.195,23.316   c-1.554,3.91-2.176,4.178-4.974,4.576v1.244h9.638v-1.244c-3.331-0.311-3.731-0.756-2.754-3.553   c0.578-1.865,1.244-3.732,1.955-5.73h9.46c0.978,2.709,1.866,5.107,2.443,6.84c0.578,1.732,0.178,2.088-2.62,2.443v1.244H184.242   L184.242,104.184z M172.916,91.746h-8.173c1.332-3.643,2.754-7.506,4.175-11.326h0.089L172.916,91.746L172.916,91.746z    M219.107,75.312h-10.481v1.244c3.065,0.178,4.131,0.754,4.353,2.754c0.133,1.242,0.312,3.287,0.312,7.373v10.926h-0.134   l-18.521-22.297h-6.574v1.244c2.088,0.178,3.065,0.533,3.953,1.643c0.8,1.066,0.888,1.244,0.888,4.486v9.771   c0,4.086-0.133,6.219-0.266,7.596c-0.222,2.176-1.333,2.754-3.909,2.887v1.244h10.527v-1.244c-3.02-0.178-4.042-0.711-4.264-2.977   c-0.133-1.287-0.266-3.42-0.266-7.506V81.309h0.088l18.922,23.275h1.377v-17.9c0-4.131,0.09-6.131,0.267-7.463   c0.178-1.953,1.244-2.531,3.73-2.664V75.312L219.107,75.312z M256.196,75.312h-10.483v1.244c3.064,0.178,4.131,0.754,4.353,2.754   c0.134,1.242,0.312,3.287,0.312,7.373v10.926h-0.133l-18.522-22.297h-6.573v1.244c2.087,0.178,3.064,0.533,3.953,1.643   c0.799,1.066,0.889,1.244,0.889,4.486v9.771c0,4.086-0.134,6.219-0.268,7.596c-0.222,2.176-1.332,2.754-3.908,2.887v1.244h10.527   v-1.244c-3.021-0.178-4.042-0.711-4.264-2.977c-0.135-1.287-0.268-3.42-0.268-7.506V81.309h0.089l18.921,23.275h1.378v-17.9   c0-4.131,0.089-6.131,0.267-7.463c0.177-1.953,1.243-2.531,3.731-2.664V75.312L256.196,75.312z M293.727,75.312h-11.592v1.244   c3.464,0.311,3.819,0.533,3.819,4.219v7.195h-15.146v-7.195c0-3.686,0.356-3.908,3.731-4.219v-1.244h-11.504v1.244   c3.643,0.311,3.998,0.488,3.998,4.219v17.945c0,3.73-0.355,3.953-3.909,4.219v1.244h11.682v-1.244   c-3.642-0.266-3.998-0.533-3.998-4.219v-8.885h15.146v8.885c0,3.73-0.399,3.953-4.176,4.219v1.244h11.904v-1.244   c-3.598-0.266-3.953-0.488-3.953-4.219V80.775c0-3.686,0.355-3.908,3.997-4.219V75.312L293.727,75.312z M322.642,96.988   c-0.577,1.775-1.421,3.285-2.176,4.176c-0.979,1.154-2.221,1.51-5.597,1.51c-2.222,0-3.775-0.045-4.619-0.578   c-0.8-0.578-1.066-1.51-1.066-3.598v-8.395h4.219c3.865,0,4.176,0.266,4.753,3.463h1.288v-8.527h-1.288   c-0.577,2.977-0.8,3.332-4.797,3.332h-4.175V78.289c0-1.332,0.089-1.422,1.465-1.422h3.376c3.198,0,4.397,0.311,5.02,1.242   c0.578,0.979,1.021,1.955,1.422,3.82l1.288-0.221c-0.134-2.266-0.356-5.285-0.356-6.396h-19.81v1.244   c3.465,0.311,3.82,0.443,3.82,4.441v17.678c0,3.598-0.355,3.953-4.397,4.264v1.244h21.409c0.399-1.377,1.288-5.553,1.554-7.018   L322.642,96.988L322.642,96.988z M343.517,104.184v-1.244c-3.642-0.266-3.997-0.488-3.997-4.309V80.863   c0-3.773,0.355-4.041,3.997-4.307v-1.244h-11.77v1.244c3.642,0.266,3.997,0.533,3.997,4.307v17.768   c0,3.775-0.355,4.043-3.997,4.309v1.244H343.517L343.517,104.184z M388.555,104.184v-1.244c-3.864-0.355-3.998-0.578-4.131-5.285   l-0.444-16.08c-0.133-4.574,0.179-4.662,4.086-5.018v-1.244h-7.551l-10.26,22.209l-10.127-22.209h-7.284v1.244   c4.042,0.4,4.264,0.576,3.864,6.35l-0.622,9.24c-0.355,4.619-0.622,6.574-0.844,8.127c-0.311,1.867-1.199,2.355-3.775,2.666v1.244   h10.349v-1.244c-2.931-0.311-3.997-0.621-4.086-2.754c-0.045-1.777-0.045-3.73,0.133-7.373l0.666-12.658h0.09l9.948,23.719h0.89   l10.837-24.342h0.178l0.133,18.123c0.045,4.707-0.133,4.93-3.73,5.285v1.244H388.555L388.555,104.184z"/>
	<path fill="#002F56" d="M145.245,36.905h-10.571v1.244c3.109,0.222,4.042,0.755,4.308,2.487c0.178,1.377,0.311,3.242,0.311,7.329   v3.375c0,7.329-1.999,12.659-8.395,12.659c-5.507,0-8.35-4.086-8.35-11.237V42.635c0-3.998,0.355-4.264,3.864-4.486v-1.244h-11.504   v1.244c3.509,0.311,3.865,0.488,3.865,4.486v11.104c0,5.197,1.243,8.528,3.908,10.571c1.955,1.51,4.531,2.131,7.107,2.131   c2.932,0,5.907-0.932,7.951-3.064c2.576-2.709,3.375-6.485,3.375-11.726v-3.686c0-4.087,0.089-5.997,0.222-7.196   c0.222-1.821,1.244-2.443,3.909-2.62V36.905L145.245,36.905z M180.822,36.905H170.34v1.244c3.065,0.177,4.131,0.755,4.353,2.753   c0.133,1.244,0.311,3.287,0.311,7.374v10.926h-0.134l-18.521-22.297h-6.574v1.244c2.087,0.177,3.065,0.533,3.953,1.643   c0.8,1.066,0.888,1.244,0.888,4.486v9.772c0,4.086-0.133,6.217-0.266,7.594c-0.222,2.177-1.333,2.754-3.909,2.888v1.244h10.527   v-1.244c-3.02-0.179-4.042-0.711-4.264-2.976c-0.133-1.289-0.267-3.42-0.267-7.506V42.901h0.089l18.922,23.274h1.377V48.276   c0-4.131,0.088-6.13,0.266-7.462c0.178-1.955,1.244-2.532,3.731-2.665V36.905L180.822,36.905z M199.432,65.776v-1.244   c-3.642-0.267-3.997-0.488-3.997-4.308V42.458c0-3.775,0.355-4.042,3.997-4.308v-1.244h-11.77v1.244   c3.642,0.266,3.997,0.533,3.997,4.308v17.767c0,3.774-0.355,4.041-3.997,4.308v1.244H199.432L199.432,65.776z M233.588,36.905   h-9.994v1.244c3.598,0.444,3.864,0.799,3.021,3.331c-1.422,4.442-4.798,13.103-7.018,18.654h-0.089   c-2.976-7.64-6.219-16.211-7.373-19.365c-0.711-1.954-0.533-2.265,2.62-2.62v-1.244h-10.882v1.288   c2.621,0.222,3.331,0.577,4.619,3.909c2.577,6.44,6.219,15.99,9.195,24.118h1.377c3.331-9.15,8.039-20.432,9.238-23.319   c1.688-3.997,2.266-4.397,5.286-4.752V36.905L233.588,36.905z M258.193,58.58c-0.577,1.777-1.421,3.287-2.177,4.176   c-0.977,1.154-2.22,1.51-5.596,1.51c-2.221,0-3.775-0.045-4.619-0.578c-0.8-0.576-1.066-1.51-1.066-3.598v-8.394h4.22   c3.863,0,4.175,0.266,4.753,3.464h1.288v-8.528h-1.288c-0.578,2.976-0.8,3.331-4.797,3.331h-4.176V39.881   c0-1.333,0.089-1.421,1.466-1.421h3.376c3.197,0,4.396,0.31,5.019,1.243c0.578,0.977,1.022,1.955,1.421,3.82l1.289-0.222   c-0.134-2.265-0.355-5.286-0.355-6.396H237.14v1.244c3.465,0.311,3.82,0.444,3.82,4.441v17.677c0,3.599-0.355,3.953-4.397,4.265   v1.244h21.409c0.4-1.378,1.288-5.552,1.554-7.018L258.193,58.58L258.193,58.58z M292.705,64.977   c-0.978-0.267-1.999-0.756-3.198-2.088c-1.066-1.154-1.999-2.31-3.598-4.62c-1.332-1.998-3.198-4.974-3.953-6.44   c3.287-1.421,5.641-3.775,5.641-7.595c0-2.665-1.155-4.664-2.931-5.819c-1.688-1.11-3.865-1.51-7.107-1.51h-11.015v1.244   c3.464,0.311,3.818,0.444,3.818,4.219v17.856c0,3.774-0.398,4.041-4.04,4.308v1.244h11.681v-1.244   c-3.553-0.267-3.953-0.533-3.953-4.308v-7.063h1.421c2.31,0,3.065,0.533,3.82,1.777c1.333,2.177,2.932,4.93,4.485,7.107   c1.999,2.887,3.865,3.864,7.196,4.042c0.533,0.044,1.021,0.044,1.554,0.044L292.705,64.977L292.705,64.977z M274.05,51.696V40.77   c0-1.199,0.178-1.732,0.489-1.954c0.354-0.267,1.109-0.444,2.397-0.444c3.376,0,6.529,1.776,6.529,6.573   c0,2.399-0.71,4.176-2.443,5.508c-1.109,0.888-2.575,1.244-4.841,1.244H274.05L274.05,51.696z M313.935,43.391   c-0.354-2.798-0.577-4.531-0.755-6.13c-1.688-0.533-3.553-1.021-5.596-1.021c-5.73,0-9.15,3.642-9.15,7.906   c0,5.019,4.486,7.24,7.329,8.75c3.331,1.777,5.774,3.331,5.774,6.618c0,3.243-1.999,5.331-5.33,5.331   c-4.575,0-6.574-4.486-7.284-7.196l-1.289,0.31c0.267,2.132,0.844,5.952,1.2,6.886c0.398,0.221,1.065,0.532,2.176,0.933   c1.111,0.311,2.532,0.665,4.353,0.665c5.907,0,9.86-3.73,9.86-8.394c0-4.974-4.219-7.062-7.684-8.839   c-3.509-1.821-5.642-3.331-5.642-6.573c0-2.399,1.512-4.886,4.932-4.886c3.863,0,5.019,3.065,5.817,5.907L313.935,43.391   L313.935,43.391z M335.477,65.776v-1.244c-3.642-0.267-3.997-0.488-3.997-4.308V42.458c0-3.775,0.355-4.042,3.997-4.308v-1.244   h-11.77v1.244c3.642,0.266,3.997,0.533,3.997,4.308v17.767c0,3.774-0.355,4.041-3.997,4.308v1.244H335.477L335.477,65.776z    M367.145,43.656c-0.222-2.576-0.443-5.818-0.443-7.861h-0.934c-0.71,0.843-1.065,1.11-2.265,1.11h-17.544   c-1.244,0-1.821-0.089-2.443-1.11h-0.889c-0.088,2.442-0.311,5.33-0.533,7.995h1.289c0.533-1.955,0.888-3.198,1.421-3.954   c0.577-1.021,1.466-1.376,5.152-1.376h2.754v21.852c0,3.509-0.355,3.953-4.397,4.22v1.244h12.747v-1.244   c-4.219-0.267-4.575-0.711-4.575-4.22V38.46h3.154c3.331,0,4.086,0.31,4.797,1.376c0.533,0.711,0.934,1.822,1.421,3.954   L367.145,43.656L367.145,43.656z M397.792,65.776v-1.244c-2.887-0.267-3.464-0.666-4.887-4.485   c-2.842-7.729-5.817-16.168-8.571-23.808l-1.377,0.399l-9.194,23.319c-1.555,3.909-2.177,4.176-4.975,4.575v1.244h9.639v-1.244   c-3.332-0.312-3.73-0.755-2.754-3.554c0.577-1.865,1.243-3.73,1.954-5.729h9.461c0.977,2.709,1.865,5.108,2.442,6.841   c0.577,1.731,0.178,2.088-2.62,2.442v1.244H397.792L397.792,65.776z M386.466,53.339h-8.173c1.333-3.642,2.754-7.506,4.176-11.326   h0.088L386.466,53.339L386.466,53.339z M387.798,30.509c-1.11,0-2.087,0.977-2.087,2.221c0,1.155,0.977,2.132,2.087,2.132   c1.2,0,2.132-0.977,2.132-2.132C389.93,31.486,388.998,30.509,387.798,30.509 M379.358,30.553c-1.153,0-2.132,0.933-2.132,2.177   c0,1.155,0.979,2.132,2.132,2.132c1.2,0,2.088-0.977,2.088-2.132C381.446,31.486,380.559,30.553,379.358,30.553 M425.196,43.656   c-0.222-2.576-0.443-5.818-0.443-7.861h-0.934c-0.711,0.843-1.065,1.11-2.265,1.11H404.01c-1.244,0-1.821-0.089-2.443-1.11h-0.888   c-0.089,2.442-0.311,5.33-0.533,7.995h1.288c0.533-1.955,0.888-3.198,1.421-3.954c0.578-1.021,1.467-1.376,5.153-1.376h2.753   v21.852c0,3.509-0.355,3.953-4.396,4.22v1.244h12.748v-1.244c-4.221-0.267-4.575-0.711-4.575-4.22V38.46h3.152   c3.332,0,4.087,0.31,4.798,1.376c0.532,0.711,0.933,1.822,1.422,3.954L425.196,43.656L425.196,43.656z"/>
	<path fill="#002F56" d="M87.266,25.854V19.48h2.776v-4.391h-4.391v2.776H74.704v-2.761h-4.391v4.391h2.791v9.148h-4.699v-2.757   h-2.774V7.23h2.743V2.839h-4.391v2.743h-5.408v-2.6l-0.009-0.109C58.284,1.181,56.907,0,55.198,0   c-1.749,0.009-3.133,1.213-3.365,2.928l-0.002,2.654h-5.457V2.839h-4.391V7.23h2.743v18.656h-2.774v2.757h-4.699v-9.148h2.792   v-4.391h-4.391v2.761H24.706v-2.776h-4.391v4.391h2.776v6.374h-2.791v4.391h23.25v-2.757h2.779V7.23h0.046V7.185h5.456   l-0.003,2.697h6.748V7.185h5.408V7.23h0.045l0.001,20.258h2.779v2.757h23.249v-4.391H87.266L87.266,25.854z M24.693,28.643V19.48   h0.012v-0.013H35.65l0.001,9.176H24.693L24.693,28.643z M57.24,8.547h-4.077V3.066c0.158-1.032,0.974-1.725,2.053-1.731   c1.024,0,1.831,0.683,2.024,1.706V8.547L57.24,8.547z M74.707,28.643v-9.176h10.944v0.013h0.012v9.163H74.707L74.707,28.643z"/>
	<polygon fill="#002F56" points="101.495,72.254 107.468,62.898 103.214,53.753 97.816,55.143 98.456,36.985 97.188,36.985    96.49,56.794 102.509,55.243 106.025,62.803 100.896,70.836 95.635,69.75 90.415,86.568 95.454,88.301 92.655,99.859    81.157,100.299 79.44,97.227 65.231,103.031 66.812,107.273 55.17,114.992 43.401,107.275 45.056,102.971 30.819,97.057    29.094,100.234 17.754,99.92 14.825,88.326 19.844,86.443 14.629,69.641 9.445,70.812 4.319,62.723 7.764,55.19 13.785,56.832    13.085,36.985 11.817,36.985 12.458,55.156 7.06,53.684 2.881,62.82 8.853,72.246 13.766,71.135 18.279,85.678 13.318,87.539    16.76,101.162 29.836,101.521 31.388,98.664 43.43,103.668 41.851,107.773 55.174,116.512 68.35,107.773 66.848,103.738    78.881,98.824 80.429,101.596 93.661,101.09 96.957,87.479 91.989,85.77 96.504,71.223 101.495,72.254  "/>
	<polygon fill="#002F56" points="99.728,36.984 99.147,53.487 103.92,52.257 108.914,62.994 102.095,73.674 97.376,72.701    93.569,84.969 98.465,86.65 94.671,102.32 79.7,102.895 78.32,100.426 68.469,104.449 69.894,108.275 55.177,118.033    40.296,108.273 41.8,104.365 31.958,100.277 30.581,102.814 15.763,102.404 11.807,86.746 16.709,84.908 12.9,72.633 8.258,73.682    1.438,62.918 6.353,52.172 11.127,53.475 10.545,36.984 9.277,36.984 9.799,51.799 5.647,50.667 0,63.016 7.666,75.113    12.037,74.127 15.145,84.141 10.3,85.959 14.769,103.645 31.323,104.102 32.527,101.887 40.173,105.064 38.747,108.773    55.181,119.551 71.434,108.775 70.086,105.158 77.761,102.023 78.972,104.191 95.677,103.553 99.968,85.828 95.144,84.17    98.246,74.174 102.693,75.092 110.356,63.09 104.626,50.768 100.472,51.837 100.996,36.984 99.728,36.984  "/>
	<polygon fill="#002F56" points="20.697,50.149 21.252,62.158 28.477,62.158 28.477,50.149 20.697,50.149  "/>
	<path fill="#002F56" d="M31.053,51.583h9.139v9.14h-9.139V51.583L31.053,51.583z M29.617,62.158h12.009V50.149H29.617V62.158   L29.617,62.158z"/>
	<polygon fill="#002F56" points="82.209,50.149 82.209,62.158 89.281,62.158 89.338,60.723 83.644,60.723 83.644,51.584    89.699,51.584 89.756,50.149 82.209,50.149  "/>
	<polygon fill="#002F56" points="25.095,76.443 28.478,88.334 28.478,76.443 25.095,76.443  "/>
	<polygon fill="#002F56" points="42.764,88.453 54.773,88.453 54.773,76.443 42.764,76.443 42.764,88.453  "/>
	<polygon fill="#002F56" points="69.061,88.453 81.07,88.453 81.07,76.443 69.061,76.443 69.061,88.453  "/>
	<path fill="#002F56" d="M31.053,77.879h9.139v9.139h-9.139V77.879L31.053,77.879z M29.617,88.453h12.009v-12.01H29.617V88.453   L29.617,88.453z"/>
	<polygon fill="#002F56" points="82.209,76.443 82.209,88.453 82.221,88.453 83.644,83.311 83.644,77.879 85.148,77.879    85.546,76.443 82.209,76.443  "/>
	<path fill="#002F56" d="M57.348,77.879h9.139v9.139h-9.139V77.879L57.348,77.879z M55.913,88.453h12.009v-12.01H55.913V88.453   L55.913,88.453z"/>
	<polygon fill="#002F56" points="29.617,75.305 41.626,75.305 41.626,63.297 29.617,63.297 29.617,75.305  "/>
	<polygon fill="#002F56" points="82.209,63.297 82.209,75.305 85.861,75.305 89.186,63.297 82.209,63.297  "/>
	<polygon fill="#002F56" points="21.355,63.297 21.764,64.73 27.043,64.73 27.043,73.869 24.363,73.869 24.771,75.305    28.477,75.305 28.477,63.297 21.355,63.297  "/>
	<polygon fill="#002F56" points="29.617,49.009 41.626,49.009 41.626,37 29.617,37 29.617,49.009  "/>
	<polygon fill="#002F56" points="82.209,37 82.209,49.01 89.801,49.01 90.274,37 82.209,37  "/>
	<polygon fill="#002F56" points="42.764,62.158 54.773,62.158 54.773,50.149 42.764,50.149 42.764,62.158  "/>
	<polygon fill="#002F56" points="69.061,62.158 81.07,62.158 81.07,50.149 69.061,50.149 69.061,62.158  "/>
	<path fill="#002F56" d="M57.348,51.583h9.139v9.14h-9.139V51.583L57.348,51.583z M55.913,62.158h12.009V50.149H55.913V62.158   L55.913,62.158z"/>
	<polygon fill="#002F56" points="55.913,75.305 67.922,75.305 67.922,63.297 55.913,63.297 55.913,75.305  "/>
	<path fill="#002F56" d="M44.2,64.73h9.139v9.139H44.2V64.73L44.2,64.73z M42.764,75.305h12.009V63.297H42.764V75.305L42.764,75.305   z"/>
	<path fill="#002F56" d="M70.496,64.73h9.137v9.139h-9.137V64.73L70.496,64.73z M69.061,75.305H81.07V63.297H69.061V75.305   L69.061,75.305z"/>
	<polygon fill="#002F56" points="55.913,49.009 67.922,49.009 67.922,37 55.913,37 55.913,49.009  "/>
	<path fill="#002F56" d="M44.2,38.437h9.139v9.139H44.2V38.437L44.2,38.437z M42.764,49.009h12.009V37H42.764V49.009L42.764,49.009z   "/>
	<path fill="#002F56" d="M70.496,38.437h9.137v9.139h-9.137V38.437L70.496,38.437z M69.061,49.009H81.07V37H69.061V49.009   L69.061,49.009z"/>
	<polygon fill="#002F56" points="20.089,37.001 20.155,38.436 27.043,38.436 27.043,47.574 20.579,47.574 20.645,49.01    28.479,49.01 28.479,37.001 20.089,37.001  "/>
	<polygon fill="#002F56" points="29.617,89.594 29.617,89.643 41.626,94.959 41.626,89.594 29.617,89.594  "/>
	<polygon fill="#002F56" points="55.912,89.594 55.912,100.797 67.921,95.438 67.921,89.594 55.912,89.594  "/>
	<polygon fill="#002F56" points="42.765,89.594 42.765,95.463 44.2,96.098 44.2,91.027 53.338,91.027 53.338,100.145    54.774,100.779 54.774,89.594 42.765,89.594  "/>
	<polygon fill="#002F56" points="69.06,89.594 69.06,94.93 70.496,94.289 70.496,91.027 77.805,91.027 81.021,89.594 69.06,89.594     "/>
</g>
</svg>