<?xml version="1.0" encoding="utf-8"?>
<!-- Generator: Adobe Illustrator 23.0.4, SVG Export Plug-In . SVG Version: 6.00 Build 0)  -->
<svg version="1.1" id="Logos" xmlns="http://www.w3.org/2000/svg" xmlns:xlink="http://www.w3.org/1999/xlink" x="0px" y="0px"
	 viewBox="0 0 199.8 26.9" style="enable-background:new 0 0 199.8 26.9;" xml:space="preserve">
<style type="text/css">
	.st0{fill:#968C83;}
	.st1{fill:#BA0020;}
</style>
<path id="Gray" class="st0" d="M0,22.8h2.7V6.6H0V22.8z M6.2,22.8h2.7V6.6H6.2V22.8z M26.9,22.8h2.7V6.6h-2.7V22.8z M33.1,22.8h2.7
	V6.6h-2.7V22.8z M0,4.6h35.8V3.2H0V4.6z"/>
<path id="Red" class="st1" d="M12.4,22.8h2.7V6.6h-2.7V22.8z M20.7,22.8h2.7V6.6h-2.7V22.8z M12.4,1.5h11V0h-11V1.5z M61.7,22.8
	v-7.9H54v7.9h-3.5V4.6H54v7.3h7.7V4.6h3.5v18.1H61.7z M79.6,16.7h-8.3c0,2.5,1.2,3.7,3.7,3.7c1.3,0,2.7-0.3,3.9-0.8l0.3,2.7
	c-1.4,0.6-3.1,0.9-4.8,0.9c-4.2,0-6.6-2.1-6.6-6.8c0-4.1,2.3-7.1,6.3-7.1c3.9,0,5.6,2.7,5.6,6C79.7,15.6,79.6,16.1,79.6,16.7
	 M73.9,11.7c-1.4,0-2.4,1-2.6,2.7h4.9C76.3,12.6,75.4,11.7,73.9,11.7 M89.4,12.5c-2.5-0.5-3.7,1.1-3.7,4.8v5.5h-3.4V9.4h3.3
	c0,0.7-0.1,1.7-0.2,2.7h0.1c0.6-1.7,1.9-3.2,4.2-3L89.4,12.5z M96.7,23.1c-3,0-3.9-1.1-3.9-4.2v-6.8h-2.3V9.4h2.3V5.3l3.4-0.9v5h3.3
	v2.7h-3.3v5.9c0,1.7,0.4,2.2,1.6,2.2c0.6,0,1.2-0.1,1.7-0.2v2.8C98.6,22.9,97.6,23.1,96.7,23.1 M103.4,7.7c-1.2,0-2.1-0.9-2.1-2.1
	c0-1.1,0.9-2.1,2.1-2.1c1.2,0,2.2,0.9,2.2,2.1C105.6,6.8,104.6,7.7,103.4,7.7 M101.7,9.4h3.4v13.4h-3.4V9.4z M119.3,16.7H111
	c0,2.5,1.2,3.7,3.7,3.7c1.3,0,2.7-0.3,3.9-0.8l0.3,2.7c-1.4,0.6-3.1,0.9-4.8,0.9c-4.2,0-6.6-2.1-6.6-6.8c0-4.1,2.3-7.1,6.3-7.1
	c3.9,0,5.6,2.7,5.6,6C119.4,15.6,119.4,16.1,119.3,16.7 M113.7,11.7c-1.4,0-2.4,1-2.6,2.7h4.9C116.1,12.6,115.1,11.7,113.7,11.7
	 M131.2,23.1c-1.3,0-2.6-0.1-3.7-0.4l0.2-3.3c1,0.3,2.5,0.6,3.8,0.6c1.8,0,3.1-0.7,3.1-2.4c0-3.5-7.6-1.9-7.6-7.9
	c0-3.2,2.6-5.5,6.9-5.5c1,0,2.2,0.1,3.3,0.3l-0.2,3.1c-1-0.3-2.2-0.5-3.3-0.5c-2,0-3,0.9-3,2.2c0,3.3,7.6,2,7.6,7.7
	C138.4,20.6,135.7,23.1,131.2,23.1 M146.1,23c-3.7,0-6-1.9-6-6.5c0-4.2,2.2-7.4,6.9-7.4c0.9,0,1.9,0.1,2.7,0.4l-0.3,3
	c-0.7-0.3-1.6-0.5-2.4-0.5c-2.2,0-3.3,1.6-3.3,4.1c0,2.3,0.9,3.8,3.2,3.8c0.9,0,1.9-0.2,2.6-0.6l0.3,2.9
	C148.9,22.8,147.6,23,146.1,23 M160.3,22.8v-8.5c0-1.4-0.4-2.2-1.6-2.2c-1.7,0-3.1,2-3.1,4.3v6.5h-3.4V3.2h3.4v5.7
	c0,0.8-0.1,1.9-0.2,2.7l0.1,0c0.8-1.5,2.3-2.5,4.4-2.5c3,0,4,1.9,4,4.3v9.4H160.3z M172.4,23.1c-3.8,0-6.2-2-6.2-6.7
	c0-4.2,2.8-7.2,6.8-7.2c3.8,0,6.2,2.1,6.2,6.7C179.2,20,176.4,23.1,172.4,23.1 M172.7,12.1c-1.5,0-3,1.2-3,3.9c0,2.7,1,4.1,3,4.1
	c1.7,0,3-1.4,3-4.1C175.7,13.5,174.8,12.1,172.7,12.1 M187.1,23.1c-3.8,0-6.2-2-6.2-6.7c0-4.2,2.8-7.2,6.8-7.2
	c3.8,0,6.2,2.1,6.2,6.7C193.9,20,191.1,23.1,187.1,23.1 M187.4,12.1c-1.5,0-3,1.2-3,3.9c0,2.7,1,4.1,3,4.1c1.7,0,3-1.4,3-4.1
	C190.4,13.5,189.4,12.1,187.4,12.1 M196.3,3.2h3.4v19.6h-3.4V3.2z"/>
</svg>
