<?xml version="1.0" encoding="UTF-8"?>
<svg xmlns="http://www.w3.org/2000/svg" id="Ebene_1" data-name="Ebene 1" viewBox="0 0 1920 767.54">
  <defs>
    <style>
      .cls-1 {
        fill: #004f9f;
      }

      .cls-2 {
        fill: #706f6f;
      }
    </style>
  </defs>
  <polygon class="cls-2" points="764.84 619.83 780.4 619.83 806.22 530.75 806.54 530.75 832.52 619.83 848.08 619.83 879.3 510.71 863.89 510.71 840.39 597.96 840.06 597.96 814.85 510.71 797.91 510.71 772.7 597.96 772.4 597.96 748.87 510.71 733.47 510.71 764.84 619.83"></polygon>
  <path class="cls-2" d="M884.5,520.57c0,5.55,4.61,10.18,10.16,10.18s10.18-4.63,10.18-10.18-4.63-10.16-10.18-10.16-10.16,4.61-10.16,10.16m3.23,99.26h13.88v-73.06h-13.88v73.06Z"></path>
  <path class="cls-2" d="M961.52,546.78h-19.89v-20.5h-13.86v20.5h-16.04v12.02h16.04v38.07c0,11.71,.31,24.81,21.72,24.81,2.78,0,9.24-.61,12.48-2.45v-12.65c-2.78,1.7-6.62,2.16-9.86,2.16-10.49,0-10.49-8.63-10.49-16.81v-33.13h19.89v-12.02Z"></path>
  <path class="cls-2" d="M1019.3,546.78h-19.89v-20.5h-13.86v20.5h-16.04v12.02h16.04v38.07c0,11.71,.31,24.81,21.72,24.81,2.78,0,9.24-.61,12.48-2.45v-12.65c-2.78,1.7-6.62,2.16-9.86,2.16-10.49,0-10.49-8.63-10.49-16.81v-33.13h19.89v-12.02Z"></path>
  <path class="cls-2" d="M1046.54,577.29c0-9.7,8.94-21.27,22.66-21.27s20.81,9.09,21.11,21.27h-43.77Zm58.57,11.1v-4.94c0-18.8-9.86-38.53-35.6-38.53-21.9,0-37.76,16.5-37.76,38.38s14.49,38.38,37.61,38.38c14.03,0,24.65-4.92,32.37-14.95l-10.49-8c-5.4,6.62-11.56,10.93-20.04,10.93-12.79,0-24.65-8.48-24.65-21.27h58.57Z"></path>
  <path class="cls-2" d="M1120.85,619.83h13.88v-37.61c0-16.96,8.79-24.35,20.35-24.35,8.79,0,16.63,5.09,16.63,18.8v43.16h13.88v-47.01c0-19.43-12.33-27.89-26.51-27.89-11.25,0-20.5,5.38-24.04,13.09h-.31v-11.25h-13.88v73.06Z"></path>
  <polygon class="cls-2" points="1261.01 507.94 1250.37 503.94 1201.06 622.61 1211.84 626.61 1261.01 507.94"></polygon>
  <polygon class="cls-2" points="1278.58 619.83 1293.38 619.83 1293.38 569.9 1346.76 569.9 1346.76 619.83 1361.56 619.83 1361.56 510.71 1346.76 510.71 1346.76 556.02 1293.38 556.02 1293.38 510.71 1278.58 510.71 1278.58 619.83"></polygon>
  <path class="cls-2" d="M1394.35,577.29c0-9.7,8.94-21.27,22.66-21.27s20.81,9.09,21.11,21.27h-43.78Zm58.57,11.1v-4.94c0-18.8-9.86-38.53-35.6-38.53-21.88,0-37.76,16.5-37.76,38.38s14.49,38.38,37.61,38.38c14.03,0,24.65-4.92,32.37-14.95l-10.49-8c-5.4,6.62-11.56,10.93-20.02,10.93-12.8,0-24.67-8.48-24.67-21.27h58.57Z"></path>
  <path class="cls-2" d="M1470.53,619.83h13.88v-36.67c0-16.04,7.39-23.43,20.96-23.43,2.16,0,4.46,.46,6.78,1.07l.61-14.95c-1.84-.61-4-.92-6.16-.92-9.09,0-18.34,5.38-21.88,13.09h-.31v-11.25h-13.88v73.06Z"></path>
  <path class="cls-2" d="M1557.38,608.74c-14.8,0-24.04-10.64-24.04-25.44s9.25-25.42,24.04-25.42,24.04,10.62,24.04,25.42-9.24,25.44-24.04,25.44m37.92-105.43h-13.88v53.94h-.31c-4.92-7.54-14.95-12.33-25.42-12.33-22.51,0-37.15,16.5-37.15,38.38s14.49,38.38,37.15,38.38c9.86,0,20.02-4.46,25.42-12.33h.31v10.49h13.88v-116.53Z"></path>
  <path class="cls-2" d="M1625.9,577.29c0-9.7,8.94-21.27,22.66-21.27s20.81,9.09,21.11,21.27h-43.78Zm58.57,11.1v-4.94c0-18.8-9.86-38.53-35.6-38.53-21.88,0-37.76,16.5-37.76,38.38s14.49,38.38,37.61,38.38c14.03,0,24.65-4.92,32.37-14.95l-10.49-8c-5.4,6.62-11.56,10.93-20.02,10.93-12.8,0-24.67-8.48-24.67-21.27h58.57Z"></path>
  <path class="cls-2" d="M1762.94,556.64c-7.24-7.87-17.42-11.56-28.06-11.56-22.8,0-38.21,16.04-38.21,38.53s15.71,38.07,38.21,38.07c10.64,0,20.52-3.23,27.75-11.25l-9.86-9.86c-4.63,5.4-10.03,8.17-17.72,8.17-14.34,0-23.58-11.1-23.58-24.83s7.69-25.9,22.8-25.9c7.71,0,13.11,2.78,18.2,8.17l10.47-9.55Z"></path>
  <polygon class="cls-2" points="1773.52 619.83 1787.4 619.83 1787.4 581.92 1821.29 619.83 1841.03 619.83 1804.03 580.08 1838.1 546.93 1818.82 546.93 1787.4 578.53 1787.4 503.3 1773.52 503.3 1773.52 619.83"></polygon>
  <path class="cls-2" d="M1861.43,577.29c0-9.7,8.94-21.27,22.66-21.27s20.81,9.09,21.11,21.27h-43.78Zm58.57,11.1v-4.94c0-18.8-9.86-38.53-35.6-38.53-21.9,0-37.76,16.5-37.76,38.38s14.49,38.38,37.61,38.38c14.03,0,24.65-4.92,32.37-14.95l-10.49-8c-5.4,6.62-11.56,10.93-20.04,10.93-12.79,0-24.65-8.48-24.65-21.27h58.57Z"></path>
  <path class="cls-2" d="M308.43,293.9h-36.9v80.58c0,19.68-9.53,37.52-33.82,37.52-25.84,0-27.06-27.06-27.06-43.37v-74.73h-36.9v93.18c0,30.15,14.15,58.13,53.8,58.13,24.62,0,38.45-12.61,45.21-27.37h.61v23.68h35.07v-147.61Z"></path>
  <path class="cls-2" d="M347.02,441.52h36.9v-80.58c0-19.68,9.53-37.52,33.82-37.52,25.84,0,27.06,27.06,27.06,43.37v74.73h36.9v-93.18c0-30.15-14.14-58.13-53.8-58.13-24.62,0-38.45,12.61-45.21,27.37h-.61v-23.68h-35.07v147.61Z"></path>
  <rect class="cls-2" x="523.37" y="293.91" width="36.9" height="147.61"></rect>
  <polygon class="cls-2" points="739.21 441.52 778.58 441.52 836.69 293.91 798.87 293.91 759.19 397.23 758.58 397.23 719.22 293.91 678.93 293.91 739.21 441.52"></polygon>
  <path class="cls-2" d="M881.46,352.95c2.78-21.23,16.31-35.07,38.15-35.07,23.06,0,37.21,13.53,37.52,35.07h-75.66Zm112.57,27.68v-10.14c0-51.35-27.98-80.28-69.19-80.28-44.6,0-80.28,31.07-80.28,77.5s35.68,77.5,80.28,77.5c23.37,0,45.21-8.31,62.44-29.52l-26.45-20c-9.23,11.39-21.23,20-39.68,20-20.6,0-37.21-13.23-39.68-35.07h112.57Z"></path>
  <path class="cls-2" d="M1025.23,441.52h36.9v-79.03c0-8,4.92-37.21,39.68-37.21,5.84,0,11.68,1.22,17.84,2.76v-35.66c-4.31-1.24-8.61-2.16-13.23-2.16-19.37,0-35.68,10.14-43.68,27.07h-.61v-23.37h-36.9v147.61Z"></path>
  <path class="cls-2" d="M1247.52,312.66c-12-16.31-32.9-22.45-52.58-22.45-29.84,0-59.36,14.76-59.36,47.66,0,56.29,79.65,32.31,79.65,62.74,0,11.7-13.84,16.92-24.6,16.92-15.7,0-25.53-7.69-35.07-18.15l-24.6,23.06c15.06,16.92,34.74,22.76,57.5,22.76,30.15,0,63.66-12.31,63.66-47.35,0-57.52-79.64-35.98-79.64-62.44,0-11.06,11.68-15.68,21.51-15.68,12.61,0,21.84,5.23,28.92,15.06l24.6-22.15Z"></path>
  <path class="cls-2" d="M1278.68,243.78c0,11.68,9.84,22.15,23.37,22.15s24-9.53,24-22.15-10.47-22.15-24-22.15-23.37,10.45-23.37,22.15m5.22,197.74h36.9v-147.61h-36.9v147.61Z"></path>
  <path class="cls-2" d="M1378.6,325.27v67.66c0,34.74,9.23,52.27,48.29,52.27,8.59,0,21.51-1.23,29.21-4.92v-31.07c-4.61,3.39-13.53,4.61-19.98,4.61-16.31,0-20.61-9.23-20.61-23.98v-64.58h40.6v-31.37h-40.6v-42.74h-36.9v42.74h-30.45v31.37h30.45Z"></path>
  <path class="cls-2" d="M1577.54,383.7c0,20.6-11.98,33.82-37.21,33.82-12,0-25.84-5.84-25.84-19.37,0-21.21,35.07-22.76,55.37-22.76h7.68v8.31Zm2.16,57.82h33.21v-84.89c0-20.9,0-66.42-63.05-66.42-23.37,0-46.43,7.06-62.74,23.68l19.39,19.37c9.84-9.23,23.98-15.37,39.35-15.37,19.7,0,33.84,9.53,33.84,27.68v4h-9.23c-36.9,0-92.89,3.37-92.89,51.35,0,29.21,26.45,44.27,53.82,44.27,19.68,0,36.9-7.37,47.37-23.98h.92v20.31Zm-22.45-195.6c0,11.7,9.84,22.15,23.37,22.15s23.98-9.53,23.98-22.15-10.45-22.15-23.98-22.15-23.37,10.45-23.37,22.15m-63.36,0c0,11.7,9.84,22.15,23.37,22.15s23.98-9.53,23.98-22.15-10.45-22.15-23.98-22.15-23.37,10.45-23.37,22.15"></path>
  <path class="cls-2" d="M1665.54,325.27v67.66c0,34.74,9.23,52.27,48.29,52.27,8.6,0,21.51-1.23,29.21-4.92v-31.07c-4.61,3.39-13.53,4.61-19.98,4.61-16.31,0-20.61-9.23-20.61-23.98v-64.58h40.6v-31.37h-40.6v-42.74h-36.9v42.74h-30.45v31.37h30.45Z"></path>
  <path class="cls-1" d="M182.72,222.28C226.94,92.66,350.37,0,494.58,0s267.78,94.1,310.65,222.28c0,0,.04,.1-.08,.15-.11,.04-.31,.06-.4,.02-.21-.06-.23-.17-.23-.17-46.84-109.22-157.28-186.49-284.49-186.49S284.32,113.22,236.35,222.28h-53.63Z"></path>
  <path class="cls-1" d="M392.36,583.52c-134.06,25.67-276.33-34.05-348.44-158.94C-28.24,299.57-8.47,145.62,81.11,44.43c0,0,.06-.1,.15-.02,.1,.08,.21,.23,.23,.33,.06,.21-.04,.29-.04,.29C10.29,140.21-1.69,274.63,61.92,384.79c63.57,110.1,184.9,165.99,303.63,152.28l26.82,46.45Z"></path>
  <path class="cls-1" d="M600.02,221.8c89.27,103.26,108.93,256.6,36.83,381.49-72.16,125.01-215.37,184.86-347.81,157.87,0,0-.11,0-.1-.13,0-.11,.1-.29,.17-.36,.15-.13,.27-.1,.27-.1,118,14.03,238.63-42.78,302.23-152.95,63.57-110.1,52.83-243.39-18.41-339.37l26.82-46.45Z"></path>
  <path class="cls-1" d="M542.41,237.65c15.58,0,28.21-12.15,28.21-27.12s-12.63-27.14-28.21-27.14-28.21,12.15-28.21,27.14,12.63,27.12,28.21,27.12"></path>
</svg>
